<?xml version="1.0" encoding="UTF-8"?>
<svg id="Layer_1" xmlns="http://www.w3.org/2000/svg" width="11.9in" height="10.7in" version="1.1" viewBox="0 0 856.8 770.4">
  <defs>
    <style>
      .st0 {
        fill: #ff6584;
      }

      .st1 {
        fill: #e93d7f;
      }

      .st2 {
        isolation: isolate;
        opacity: .1;
      }

      .st3 {
        fill: #3f3d56;
      }

      .st5 {
        fill: #fbbebe;
      }

      .st6 {
        fill: #1c7c96;
      }

      .st7 {
        fill: #cacaca;
      }
    </style>
  </defs>
  <ellipse class="st7" cx="409.8" cy="743.3" rx="257.8" ry=".9"/>
  <path class="st6" d="M268.8,277.3s95.8,47.6,112.9,40.9,23.1-65.4,23.1-65.4l-70.7-13.2-65.4,37.6h0Z"/>
  <path class="st2" d="M268.8,277.3s95.8,47.6,112.9,40.9,23.1-65.4,23.1-65.4l-70.7-13.2-65.4,37.6h0Z"/>
  <path class="st0" d="M404.6,206.3h62.7v54.9h-62.7v-54.9h0Z"/>
  <path class="st2" d="M404.6,206.3h62.7v54.9h-62.7v-54.9h0Z"/>
  <path class="st5" d="M347.5,439.7s-2.7,57.5,15.2,56.2,0-54.2,0-54.2l-15.2-2ZM420.8,214.4s4,25.1-3.3,28.4-11.9,6-11.9,6l16.5,11.3,30.4,2,8-6,7.3-6.6s-11.9-2.7-11.9-8.6-.7-23.8-.7-23.8l-34.4-2.7h0Z"/>
  <path class="st2" d="M420.8,214.4s4,25.1-3.3,28.4-11.9,6-11.9,6l16.5,11.3,30.4,2,8-6,7.3-6.6s-11.9-2.7-11.9-8.6-.7-23.8-.7-23.8l-34.4-2.7h0Z"/>
  <path class="st5" d="M379.2,449.7s-19.1,61.4-19.1,106.4c0,0-31.7,71.3-30.4,106.4l-8,48.2,11.3,4,8.6-7.3s2.7-25.8,11.3-38.3,28.4-72,28.4-72c0,0,52.9-110.9,50.9-126.9s-52.9-20.5-52.9-20.5M496.1,435.7s12.5,6-5.3,111.6c0,0,9.9,70,1.3,108.4l-1.3,38.3h-13.8l-2.7-4s-.7-34.4-5.3-43.6-8.6-62.7-8.6-62.7c0,0-21.1-109-16.5-118.2s52.2-29.7,52.2-29.7"/>
  <path class="st3" d="M319.7,699.4s4.6,10.6,13.2,8,10.6-2.7,10.6-2.7c0,0-6,30.4-4,44.9s-1.3,23.8-14.5,23.8-15.2-15.8-15.2-15.8l6-37.6,4-20.5ZM471.7,682.8s4.6,9.3,11.9,7.3,9.9-5.3,9.9-5.3c0,0-.7,20.5,2,29.7s8.6,35.7-5.3,36.9c-7.9,1-15.3-3.4-18.5-10.6v-58.2h0Z"/>
  <circle class="st5" cx="438.5" cy="202.4" r="29.1" transform="translate(102.5 549.3) rotate(-70.7)"/>
  <path class="st3" d="M504.7,452.2c.3-20.8-10.6-43.5-14.2-50.3-4.9-14.6-8.9-29.1-11.7-34.2-6-11.3-1.3-35.1,2-39.6,3.3-4.6,9.9-9.9,11.3-23.1,1.4-13.2,0-50.2,0-50.2h0c0,0-23-9.2-31.4-8-7.3,6.2-16.7,9-26.1,7.9-15.8-2-22-9.6-22-9.6,0,0-42.7,9.6-40,13.5,2.7,4,14.5,68.7,14.5,68.7,0,0,8,56.2-1.3,75.3-8.2,16.9-17.2,62.5-16.5,74.8-.9,5.9-1.6,11-1.9,14.7-4.1,18.7-8.3,43.5-8.4,64.7-3,6.9-31.7,72.9-30.5,107.2l-.3,1.9c-.2,1.2.5,2.4,1.7,2.8l22.1,6.9c.2,0,.5.1.7.1.9,0,1.7-.5,2.2-1.3.5-.8.9-1.5,1.4-2.2,8.6-12.6,27.4-68.8,28.8-72.8,1-2.2,13.8-29.2,26.3-57.6,10-22.9,16.1-38.3,19.7-48.7,3.6-8.1,7.4-21.2,9.8-23.6,1.9,5.6,1.6,25.8,4.3,29,1.1,8.2,2.6,18.4,4.8,31.3,4.5,27.2,9.6,53.6,10,55.8.5,6.2,4.2,54.4,8.9,63.8.6,1.3,1.6,4.1,2.6,10,0,.4.1.8.2,1.2.2,1.2,1.2,2.1,2.5,2.1s.1,0,.2,0l20.2-1.4c1.3,0,2.3-1.1,2.3-2.4v-1c8.3-37.5-.4-102.8-1.3-109.1,8.9-52.8,10.4-81.3,9.3-96.6Z"/>
  <path class="st3" d="M374,256.7s-5.4,4-7.4,12.6-4.6,77.3-4.6,77.3c0,0-24.4,94.4-19.1,96.4s20.5,6,22.5,4,24.4-81.9,22.5-90.5,2.7-33.7,2.7-33.7l-16.3-66.1h-.3Z"/>
  <path class="st5" d="M496.1,379.7s-35.7-17.8-39.6-6,37.6,24.4,37.6,24.4c0,0,14.5-5.3,14.5-8.6s-12.5-9.9-12.5-9.9"/>
  <path class="st3" d="M484.8,257.5l7.3-2.7s4-2.7,8.6,7.3,54.9,68,45.6,86.5-39.6,56.2-40.9,53.5-16.5-22.5-13.8-24.4,33.1-29.1,29.1-33.1-20.5-37.6-29.7-38.9-6-48.2-6-48.2"/>
  <path class="st6" d="M406.5,201.6s-100.7-40.5-187.9-79.5c0,0-45.6-11.3-69.3,9.9,0,0,19.8-2.7,19.8,8.6,0,0,17.1,22.5-36.4,26.4-37.2,2.8-52.1,25.1-57.7,38.3-4.4,10.7-12.1,19.6-21.8,25.7C40.4,238.6,21.7,244.3,0,234.4c0,0,1.2,1.9,3.6,5.1,41.9,56.7,198.2,106,253.4,62,34.1-27.1,88.1-61.4,126.9-44.1,60.8,27.1,72,15.2,72,15.2l2.7-7.3s-58.8-15.8-60.2-36.4,8.3-27.4,8.3-27.4M465.4,206.9s14.2,5.6,16.8,24.1c0,0,15.2,29.7-2,36.9s-20.5,5.3-20.5,5.3v-3.3s18.5-11.3,14.5-19.8-9-43.2-9-43.2"/>
  <path class="st6" d="M439.9,291.1s4.6-11.9,3.3-11.9,5.4-7.3,8-4.7,7.3,10.6,1.9,12.5-13.2,4-13.2,4M472.5,284.1s-12.1-4.1-12.1-2.8-7.6-5.1-5-7.8,10.3-7.7,12.4-2.5,4.5,13,4.5,13"/>
  <path class="st6" d="M453.1,266s6.1-3.4,9.7,1.9-4.4,14.5-9.7,14.5-5.3-11.3-5.3-11.3l5.3-5.3h0Z"/>
  <path class="st2" d="M453.1,266s6.1-3.4,9.7,1.9-4.4,14.5-9.7,14.5-5.3-11.3-5.3-11.3l5.3-5.3h0Z"/>
  <path class="st1" d="M413.4,155.2c-3.5,2.9-6.8,6.1-9,10.1-1.1,2.2-2.1,4.6-2.8,6.9-2.7,7.7-9.4,15.4-6.5,23.1.8,2.2,2.1,4.5,1.3,6.7-.6,2-2.6,3.1-4.1,4.6-3.1,3.2-3.6,8-3.8,12.4-.3,8.1,4.1,17.6,9.5,23.7,1.2,1.1,2.3,2.4,3.3,3.7,1.4,2.1,1.7,4.7,1,7.1l7.9-1.6c.3,2.9.4,5.8.3,8.7,3.8.4,7.5-1.9,8.7-5.6.4,2.1,1.2,4.1,2.2,6,2.3-2.9,4.1-6.2,5.2-9.7,1.5-4.5,1.8-9.3.9-13.9-.8-3.4-2-6.7-3.4-9.9-2.8-7-5.1-14.1-7.3-21.4-1.2-3.7-2.4-7.6-2-11.5l2.8-.3c0-1.5.3-3.1.9-4.5,1.6.3,3.2.9,4.7,1.8l3.2-8.2c2.1,2.2,5.2,3.2,8.1,4.1l11.1,3.5v-2.2c4.8,4.2,10.1,7.5,15.8,9.9-.7-.8-.9-1.8-.8-2.9,2.7,4.9,1.6,11,0,16.3s-3.9,10.8-3.3,16.3c.5,4.2,2.6,8.2,2.3,12.2-.2,2.1-1,4-1.3,6.1-.6,4.9,2,9.6,4.5,13.7l4.8-6.6c1.8-2.4,3.6-4.9,6.1-6.6,2.6-1.7,5.8-2.5,8-4.6,4-3.8,3.5-10.2,2.2-15.5-.7-2.8-1.5-5.7-1.3-8.7.4-4.9,3.9-9,5.8-13.5,2.8-6.8,2.3-14.3-1.3-20.7-2.4-4.1-6-7.4-8.3-11.6-2.3-4.2-3.1-9.2-6.2-12.7-1.5-1.6-3.3-3-5.2-4.1-8.8-5.3-18.5-8.5-28.7-9.4-9.7-1-17.7,2.5-25.1,8.6"/>
</svg>